<svg xmlns:xlink="http://www.w3.org/1999/xlink" xmlns="http://www.w3.org/2000/svg" _ngcontent-ng-c1884143912="" width="24" height="24" class="sidebar-sublink-icon ng-star-inserted"><defs><svg id="classic_mode" width="24" height="24" viewBox="0 0 24 24" fill="none" xmlns="http://www.w3.org/2000/svg">
<path fill-rule="evenodd" clip-rule="evenodd" d="M16 3C18.7614 3 21 5.23858 21 8V16C21 18.7614 18.7614 21 16 21H8C5.23858 21 3 18.7614 3 16V8C3 5.23858 5.23858 3 8 3H16ZM19 8C19 6.34315 17.6569 5 16 5H15V19H16C17.6569 19 19 17.6569 19 16V8ZM13 19H8C6.34315 19 5 17.6569 5 16V8C5 6.34315 6.34315 5 8 5H13V19Z" fill="#586f90"></path>
</svg></defs><use _ngcontent-ng-c1884143912="" xlink:href="#classic_mode"></use></svg>