<svg xmlns:xlink="http://www.w3.org/1999/xlink" xmlns="http://www.w3.org/2000/svg" _ngcontent-ng-c3722011528="" width="16" height="16" class="token-list-item__pin-icon ng-star-inserted"><defs><svg id="pin_filled" width="16" height="16" viewBox="0 0 16 16" fill="none" xmlns="http://www.w3.org/2000/svg">
    <path d="M14.4658 6.24187L9.75171 1.52783C9.49244 1.26856 9.06818 1.26856 8.8089 1.52783C8.54963 1.7871 8.54963 2.21136 8.8089 2.47064L9.28031 2.94204L6.92329 5.29906C6.25341 5.96894 5.23119 6.06538 4.45986 5.58838C4.24066 5.45282 3.94712 5.4468 3.76488 5.62905L3.62345 5.77047C3.36311 6.03082 3.36311 6.45293 3.62345 6.71328L5.96634 9.05616L2.6665 12.356V13.2988H3.60931L6.90914 9.99897L9.28031 12.3701C9.54066 12.6305 9.96277 12.6305 10.2231 12.3701L10.3645 12.2287C10.5468 12.0465 10.5408 11.7529 10.4052 11.5337C9.92821 10.7624 10.0246 9.74017 10.6945 9.0703L13.0515 6.71328L13.5229 7.18468C13.7822 7.44395 14.2065 7.44395 14.4658 7.18468C14.725 6.92541 14.725 6.50115 14.4658 6.24187Z" fill="#6c86ad"></path>
</svg></defs><use _ngcontent-ng-c3722011528="" xlink:href="#pin_filled"></use></svg>